<svg width="215" height="211" viewBox="0 0 215 211" fill="none" xmlns="http://www.w3.org/2000/svg">
<path d="M7.16804 100C56.0971 94.9031 94.9031 56.0971 100 7.16804C105.097 56.0971 143.903 94.9031 192.832 100C143.903 105.097 105.097 143.903 100 192.832C94.9031 143.903 56.0971 105.097 7.16804 100Z" fill="white" stroke="white"/>
<path d="M13.4888 37C25.3854 34.7462 34.7462 25.3854 37 13.4888C39.2538 25.3854 48.6146 34.7462 60.5112 37C48.6146 39.2538 39.2538 48.6146 37 60.5112C34.7462 48.6146 25.3854 39.2538 13.4888 37Z" fill="#F5F5F5" stroke="white"/>
<path d="M26.6565 172C33.2347 170.405 38.4052 165.235 40 158.656C41.5948 165.235 46.7653 170.405 53.3436 172C46.7653 173.595 41.5948 178.765 40 185.344C38.4052 178.765 33.2347 173.595 26.6565 172Z" fill="#F5F5F5" stroke="white"/>
<path d="M151.039 54C154.849 52.8504 157.85 49.8487 159 46.0385C160.15 49.8487 163.151 52.8504 166.961 54C163.151 55.1496 160.15 58.1513 159 61.9615C157.85 58.1513 154.849 55.1496 151.039 54Z" fill="#F5F5F5" stroke="white"/>
<path d="M142.115 172C159.496 169.196 173.196 155.496 176 138.115C178.804 155.496 192.504 169.196 209.885 172C192.504 174.804 178.804 188.504 176 205.885C173.196 188.504 159.496 174.804 142.115 172Z" fill="#F5F5F5" stroke="white"/>
</svg>
