<svg width="208" height="72" viewBox="0 0 208 72" fill="none" xmlns="http://www.w3.org/2000/svg">
<path fill-rule="evenodd" clip-rule="evenodd" d="M75.4963 57.9923C72.056 53.5401 67.1669 50 61.5404 50H60.3292C55.3317 50 50.8931 52.8771 47.2675 56.3166C42.248 61.0786 35.4652 64 28 64C12.536 64 0 51.464 0 36C0 20.536 12.536 8 28 8C37.344 8 45.619 12.577 50.7053 19.6114C53.2756 23.1662 57.0586 26 61.4452 26V26C66.1605 26 70.1702 22.7876 72.4451 18.6573C78.5707 7.53544 90.4054 0 104 0C117.595 0 129.429 7.53543 135.555 18.6573C137.83 22.7876 141.839 26 146.555 26V26C150.941 26 154.724 23.1662 157.295 19.6114C162.381 12.577 170.656 8 180 8C195.464 8 208 20.536 208 36C208 51.464 195.464 64 180 64C172.535 64 165.752 61.0786 160.732 56.3166C157.107 52.8771 152.668 50 147.671 50H146.46C140.833 50 135.944 53.5401 132.504 57.9923C125.92 66.5128 115.601 72 104 72C92.3992 72 82.08 66.5128 75.4963 57.9923Z" fill="#FAFAFA"/>
</svg>
