<svg width="36" height="36" viewBox="0 0 36 36" fill="none" xmlns="http://www.w3.org/2000/svg">
<g clip-path="url(#clip0_2351_3151)">
<mask id="mask0_2351_3151" style="mask-type:luminance" maskUnits="userSpaceOnUse" x="0" y="0" width="36" height="36">
<path d="M35.0356 35.0357V0.964394H0.964286V35.0357H35.0356Z" fill="white" stroke="white" stroke-width="1.92857"/>
</mask>
<g mask="url(#mask0_2351_3151)">
<path d="M17.9999 34.9453C27.3331 34.9453 34.9452 27.3332 34.9452 18.0001C34.9452 8.66694 27.3331 1.05479 17.9999 1.05479C8.66684 1.05479 1.05469 8.66694 1.05469 18.0001C1.05469 27.3332 8.66684 34.9453 17.9999 34.9453Z" stroke="#F54135" stroke-width="1.92857" stroke-miterlimit="22.926" stroke-linecap="round" stroke-linejoin="round"/>
<path d="M24.3422 24.8555C23.6885 23.7583 22.7613 22.8494 21.6512 22.2178C20.5411 21.5861 19.2861 21.2532 18.0089 21.2517C16.7317 21.2501 15.4759 21.5799 14.3643 22.2089C13.2527 22.8379 12.3233 23.7444 11.6668 24.8401" stroke="#F54135" stroke-width="1.92857" stroke-miterlimit="22.926" stroke-linecap="round" stroke-linejoin="round"/>
<path d="M14.701 13.9821C14.2094 15.4181 12.8595 16.3828 11.3417 16.3828C9.82298 16.3828 8.47242 15.417 7.98157 13.9798" stroke="#F54135" stroke-width="1.92857" stroke-miterlimit="22.926" stroke-linecap="round" stroke-linejoin="round"/>
<path d="M28.0241 13.9821C27.5324 15.4181 26.1825 16.3828 24.6648 16.3828C23.146 16.3828 21.7954 15.417 21.3046 13.9798" stroke="#F54135" stroke-width="1.92857" stroke-miterlimit="22.926" stroke-linecap="round" stroke-linejoin="round"/>
</g>
</g>
<defs>
<clipPath id="clip0_2351_3151">
<rect width="36" height="36" fill="white"/>
</clipPath>
</defs>
</svg>
