<svg width="54" height="54" viewBox="0 0 54 54" fill="none" xmlns="http://www.w3.org/2000/svg">
<path d="M31.1869 10.4675L3.92188 53.3594M22.8238 10.4844L49.9688 53.3594M0.640625 53.3594H53.3594M20.4375 53.3594L27 40.2344L33.5625 53.3594M46.7969 0.640625C44.3424 0.640625 42.2278 2.00409 41.1024 3.99975C41.3557 3.9595 41.6102 3.92188 41.875 3.92188C44.5933 3.92188 46.7969 6.12545 46.7969 8.84375C46.7969 10.7423 45.71 12.371 44.1355 13.1918C44.9504 13.5547 45.8474 13.7656 46.7969 13.7656C50.4212 13.7656 53.3594 10.8275 53.3594 7.20312C53.3594 3.57866 50.4212 0.640625 46.7969 0.640625ZM13.7656 13.7656H10.4844C10.4844 11.9534 9.01536 10.4844 7.20312 10.4844C5.39089 10.4844 3.92188 11.9534 3.92188 13.7656C2.10964 13.7656 0.640625 15.2346 0.640625 17.0469C0.640625 18.8589 2.10964 20.3281 3.92188 20.3281H13.7656C15.5779 20.3281 17.0469 18.8589 17.0469 17.0469C17.0469 15.2346 15.5779 13.7656 13.7656 13.7656Z" stroke="url(#paint0_linear_379_7354)" stroke-miterlimit="10" stroke-linecap="round" stroke-linejoin="round"/>
<defs>
<linearGradient id="paint0_linear_379_7354" x1="27" y1="0.640625" x2="27" y2="53.3594" gradientUnits="userSpaceOnUse">
<stop stop-color="#8FD0FA"/>
<stop offset="1" stop-color="#DC8BFA"/>
</linearGradient>
</defs>
</svg>
