<svg width="56" height="56" viewBox="0 0 56 56" fill="none" xmlns="http://www.w3.org/2000/svg">
<g clip-path="url(#clip0_376_7297)">
<path d="M19.5903 22.6053L20.3935 20.9695L22.2025 17.2847C24.7794 12.036 31.2216 12.036 33.7986 17.2847L35.6077 20.9695L37.4167 24.6544C38.1267 26.1004 38.3965 27.6461 38.3071 29.1266" stroke="url(#paint0_linear_376_7297)" stroke-miterlimit="10" stroke-linecap="round" stroke-linejoin="round"/>
<path d="M28.0006 13.1652V10.9351C28.0006 8.20947 30.2101 6 32.9357 6M8.15039 21.8832C5.94289 20.745 4.63182 18.3743 4.28992 15.4493" stroke="url(#paint1_linear_376_7297)" stroke-miterlimit="10" stroke-linecap="round" stroke-linejoin="round"/>
<path d="M18.1062 22.385C19.8667 21.2971 20.4119 18.988 19.324 17.2275C18.2361 15.467 15.927 14.9218 14.1665 16.0097C12.406 17.0976 11.8608 19.4067 12.9487 21.1672C14.0366 22.9277 16.3457 23.4729 18.1062 22.385Z" stroke="url(#paint2_linear_376_7297)" stroke-miterlimit="10" stroke-linecap="round" stroke-linejoin="round"/>
<path d="M10.8 28.28C12.8696 28.28 14.5472 26.6023 14.5472 24.5328C14.5472 22.4633 12.8696 20.7856 10.8 20.7856C8.73053 20.7856 7.05286 22.4633 7.05286 24.5328C7.05286 26.6023 8.73053 28.28 10.8 28.28Z" stroke="url(#paint3_linear_376_7297)" stroke-miterlimit="10" stroke-linecap="round" stroke-linejoin="round"/>
<path d="M5.45141 33.6287C7.52093 33.6287 9.1986 31.951 9.1986 29.8815C9.1986 27.8119 7.52093 26.1343 5.45141 26.1343C3.3819 26.1343 1.70422 27.8119 1.70422 29.8815C1.70422 31.951 3.3819 33.6287 5.45141 33.6287Z" stroke="url(#paint4_linear_376_7297)" stroke-miterlimit="10" stroke-linecap="round" stroke-linejoin="round"/>
<path d="M19.5007 30.0974C21.5702 30.0974 23.2479 28.4197 23.2479 26.3502C23.2479 24.2807 21.5702 22.603 19.5007 22.603C17.4312 22.603 15.7535 24.2807 15.7535 26.3502C15.7535 28.4197 17.4312 30.0974 19.5007 30.0974Z" stroke="url(#paint5_linear_376_7297)" stroke-miterlimit="10" stroke-linecap="round" stroke-linejoin="round"/>
<path d="M12.0752 34.8185C11.8693 34.681 11.6775 34.5235 11.5025 34.3484C10.0392 32.885 10.0392 30.5124 11.5025 29.0491C12.9659 27.5858 15.3385 27.5858 16.8018 29.0491C18.2652 30.5125 18.2652 32.8851 16.8018 34.3484C16.627 34.5234 16.4354 34.6807 16.2298 34.818M19.4042 34.8186C18.9543 33.5073 19.2525 31.9962 20.2987 30.9499C21.7622 29.4866 24.1347 29.4866 25.598 30.9499C26.6441 31.9961 26.9425 33.5069 26.4928 34.8179M32.6141 34.8186L50.7925 16.6401C55.5469 21.3945 55.5469 29.103 50.7925 33.8574C50.4986 34.1514 50.19 34.4304 49.8679 34.6931M54.3585 25.2488H42.184M42.184 25.2488V34.8186M42.184 25.2488L50.7926 33.8574" stroke="url(#paint6_linear_376_7297)" stroke-miterlimit="10" stroke-linecap="round" stroke-linejoin="round"/>
<path d="M1.64062 34.8179H54.3594C54.3594 41.5525 49.9879 47.2653 43.9278 49.2752C41.1812 50.1862 39.3031 52.7213 39.3031 55.6151H16.6969C16.6969 52.7214 14.8188 50.1862 12.0722 49.2752C6.0121 47.2653 1.64062 41.5525 1.64062 34.8179Z" stroke="url(#paint7_linear_376_7297)" stroke-miterlimit="10" stroke-linecap="round" stroke-linejoin="round"/>
</g>
<defs>
<linearGradient id="paint0_linear_376_7297" x1="28.957" y1="13.3481" x2="28.957" y2="29.1266" gradientUnits="userSpaceOnUse">
<stop stop-color="#8FD0FA"/>
<stop offset="1" stop-color="#DC8BFA"/>
</linearGradient>
<linearGradient id="paint1_linear_376_7297" x1="18.6128" y1="6" x2="18.6128" y2="21.8832" gradientUnits="userSpaceOnUse">
<stop stop-color="#8FD0FA"/>
<stop offset="1" stop-color="#DC8BFA"/>
</linearGradient>
<linearGradient id="paint2_linear_376_7297" x1="14.1665" y1="16.0097" x2="18.1062" y2="22.385" gradientUnits="userSpaceOnUse">
<stop stop-color="#8FD0FA"/>
<stop offset="1" stop-color="#DC8BFA"/>
</linearGradient>
<linearGradient id="paint3_linear_376_7297" x1="10.8" y1="20.7856" x2="10.8" y2="28.28" gradientUnits="userSpaceOnUse">
<stop stop-color="#8FD0FA"/>
<stop offset="1" stop-color="#DC8BFA"/>
</linearGradient>
<linearGradient id="paint4_linear_376_7297" x1="5.45141" y1="26.1343" x2="5.45141" y2="33.6287" gradientUnits="userSpaceOnUse">
<stop stop-color="#8FD0FA"/>
<stop offset="1" stop-color="#DC8BFA"/>
</linearGradient>
<linearGradient id="paint5_linear_376_7297" x1="19.5007" y1="22.603" x2="19.5007" y2="30.0974" gradientUnits="userSpaceOnUse">
<stop stop-color="#8FD0FA"/>
<stop offset="1" stop-color="#DC8BFA"/>
</linearGradient>
<linearGradient id="paint6_linear_376_7297" x1="32.3817" y1="16.6401" x2="32.3817" y2="34.8186" gradientUnits="userSpaceOnUse">
<stop stop-color="#8FD0FA"/>
<stop offset="1" stop-color="#DC8BFA"/>
</linearGradient>
<linearGradient id="paint7_linear_376_7297" x1="28" y1="34.8179" x2="28" y2="55.6151" gradientUnits="userSpaceOnUse">
<stop stop-color="#8FD0FA"/>
<stop offset="1" stop-color="#DC8BFA"/>
</linearGradient>
<clipPath id="clip0_376_7297">
<rect width="56" height="56" fill="white"/>
</clipPath>
</defs>
</svg>
