<svg width="56" height="56" viewBox="0 0 56 56" fill="none" xmlns="http://www.w3.org/2000/svg">
<mask id="mask0_462_2025" style="mask-type:luminance" maskUnits="userSpaceOnUse" x="0" y="0" width="56" height="56">
<path d="M55.4998 55.5V0.500164H0.5V55.5H55.4998Z" fill="white" stroke="white"/>
</mask>
<g mask="url(#mask0_462_2025)">
<path d="M43.4218 48.7967H12.5781M43.4218 48.7967V55.3592H12.5781V48.7967M43.4218 48.7967C49.4624 48.7967 54.3592 43.8999 54.3592 37.8593V29.1093H1.64062V37.8593C1.64062 43.8999 6.53744 48.7967 12.5781 48.7967M49.2886 10.5089L44.9083 15.8298M49.2886 10.5089C49.8496 9.82753 50.1167 9.0152 50.1273 8.20791C51.5663 8.00392 53.0714 8.63589 53.8612 10.0037C55.0063 11.9871 54.0964 14.5241 51.9518 15.3275L46.4498 17.3887C46.0202 16.8265 45.5025 16.3085 44.9083 15.8298M49.2886 10.5089C50.7443 8.74078 50.2638 6.08888 48.2804 4.94373C46.2971 3.79868 43.7603 4.70857 42.9567 6.85319M44.9083 15.8298C44.2784 15.3225 43.5717 14.8546 42.8117 14.4159M40.5389 13.3071C41.2932 13.5989 42.0517 13.9771 42.8117 14.4159M40.5389 13.3071L42.9567 6.85319M40.5389 13.3071C39.8272 13.0319 39.1197 12.8425 38.418 12.7515L37.4522 6.95611C37.0757 4.69709 38.8177 2.64062 41.1079 2.64062C42.6875 2.64062 43.9873 3.62795 44.53 4.97632C43.8363 5.3891 43.2664 6.02665 42.9567 6.85319M42.8117 14.4159C46.9967 16.8321 49.6388 20.091 46.0144 26.3686C45.5252 27.2159 44.9063 28.144 44.1926 29.1093H26.5952C27.5856 24.8326 29.2506 20.4042 30.8591 17.6186C34.4833 11.3411 38.6266 11.9996 42.8117 14.4159ZM43.3193 22.2867L46.9808 24.4007L54.3592 20.5342L51.078 29.1094M29.3988 20.5644L33.0073 22.6478M6.87256 19.0403C6.81215 18.681 6.7816 18.3174 6.78123 17.9531C6.78123 14.3286 9.71937 11.3906 13.3437 11.3906C13.3519 11.3906 13.3599 11.3911 13.3681 11.3911C13.646 8.02263 16.466 5.37499 19.9062 5.37499C23.3464 5.37499 26.1664 8.02263 26.4443 11.3911C26.4525 11.3911 26.4605 11.3906 26.4687 11.3906C29.1501 11.3906 31.4543 12.9995 32.4727 15.3039M20.7776 26.3713C17.7614 29.3877 12.5854 29.1021 12.5854 29.1021C12.5854 29.1021 12.2997 23.9261 15.3161 20.9098C18.3324 17.8936 23.5083 18.1792 23.5083 18.1792C23.5083 18.1792 23.7939 23.355 20.7776 26.3713ZM9.84014 20.9098C12.8565 23.9261 12.5709 29.102 12.5709 29.102C12.5709 29.102 7.39496 29.3875 4.37863 26.3713C1.3623 23.355 1.64798 18.179 1.64798 18.179C1.64798 18.179 6.82392 17.8935 9.84014 20.9098Z" stroke="url(#paint0_linear_462_2025)" stroke-miterlimit="10" stroke-linecap="round" stroke-linejoin="round"/>
</g>
<defs>
<linearGradient id="paint0_linear_462_2025" x1="50.6702" y1="29.1095" x2="50.6702" y2="20.5343" gradientUnits="userSpaceOnUse">
<stop stop-color="#8FD0FA"/>
<stop offset="1" stop-color="#DC8BFA"/>
</linearGradient>
</defs>
</svg>
